<svg xmlns="http://www.w3.org/2000/svg" xmlns:xlink="http://www.w3.org/1999/xlink" width="1080" zoomAndPan="magnify" viewBox="0 0 810 809.999993" height="1080" preserveAspectRatio="xMidYMid meet" version="1.0"><defs><g/><clipPath id="9ddff64071"><path d="M 243 313.46875 L 567 313.46875 L 567 496.46875 L 243 496.46875 Z M 243 313.46875 " clip-rule="nonzero"/></clipPath></defs><g clip-path="url(#9ddff64071)"><path fill="#ff914d" d="M 551.753906 379.585938 L 546.351562 379.585938 L 546.351562 362.777344 C 546.351562 353.484375 538.785156 345.917969 529.492188 345.917969 L 521.578125 345.917969 L 521.578125 330.988281 C 521.578125 321.355469 513.738281 313.515625 504.105469 313.515625 L 484.410156 313.515625 C 474.78125 313.515625 466.941406 321.355469 466.941406 330.988281 L 466.941406 379.585938 L 343.058594 379.585938 L 343.058594 330.988281 C 343.058594 321.355469 335.21875 313.515625 325.589844 313.515625 L 305.894531 313.515625 C 296.261719 313.515625 288.421875 321.355469 288.421875 330.988281 L 288.421875 345.917969 L 280.507812 345.917969 C 271.214844 345.917969 263.648438 353.484375 263.648438 362.777344 L 263.648438 379.585938 L 258.246094 379.585938 C 249.84375 379.585938 243 386.429688 243 394.835938 L 243 415.164062 C 243 423.570312 249.84375 430.410156 258.246094 430.410156 L 263.648438 430.410156 L 263.648438 447.222656 C 263.648438 456.515625 271.214844 464.082031 280.507812 464.082031 L 288.421875 464.082031 L 288.421875 479.011719 C 288.421875 488.640625 296.261719 496.480469 305.894531 496.480469 L 325.589844 496.480469 C 335.21875 496.480469 343.058594 488.640625 343.058594 479.011719 L 343.058594 430.410156 L 466.941406 430.410156 L 466.941406 479.011719 C 466.941406 488.640625 474.78125 496.480469 484.410156 496.480469 L 504.105469 496.480469 C 513.738281 496.480469 521.578125 488.640625 521.578125 479.011719 L 521.578125 464.082031 L 529.492188 464.082031 C 538.785156 464.082031 546.351562 456.515625 546.351562 447.222656 L 546.351562 430.410156 L 551.753906 430.410156 C 560.15625 430.410156 567 423.570312 567 415.164062 L 567 394.835938 C 567 386.429688 560.15625 379.585938 551.753906 379.585938 Z M 258.246094 420.246094 C 255.445312 420.246094 253.164062 417.964844 253.164062 415.164062 L 253.164062 394.835938 C 253.164062 392.03125 255.445312 389.753906 258.246094 389.753906 L 263.648438 389.753906 L 263.648438 420.246094 Z M 280.507812 453.917969 C 276.816406 453.917969 273.8125 450.910156 273.8125 447.222656 L 273.8125 362.777344 C 273.8125 359.085938 276.816406 356.082031 280.507812 356.082031 L 288.421875 356.082031 L 288.421875 453.917969 Z M 332.894531 479.011719 C 332.894531 483.039062 329.617188 486.316406 325.589844 486.316406 L 305.894531 486.316406 C 301.867188 486.316406 298.589844 483.039062 298.589844 479.011719 L 298.589844 330.988281 C 298.589844 326.960938 301.867188 323.683594 305.894531 323.683594 L 325.589844 323.683594 C 329.617188 323.683594 332.894531 326.960938 332.894531 330.988281 Z M 343.058594 420.246094 L 343.058594 389.753906 L 466.941406 389.753906 L 466.941406 420.246094 Z M 511.410156 479.011719 C 511.410156 483.039062 508.132812 486.316406 504.105469 486.316406 L 484.410156 486.316406 C 480.382812 486.316406 477.105469 483.039062 477.105469 479.011719 L 477.105469 330.988281 C 477.105469 326.960938 480.382812 323.683594 484.410156 323.683594 L 504.105469 323.683594 C 508.132812 323.683594 511.410156 326.960938 511.410156 330.988281 Z M 536.1875 447.222656 C 536.1875 450.910156 533.183594 453.917969 529.492188 453.917969 L 521.578125 453.917969 L 521.578125 356.082031 L 529.492188 356.082031 C 533.183594 356.082031 536.1875 359.085938 536.1875 362.777344 Z M 556.835938 415.164062 C 556.835938 417.964844 554.554688 420.246094 551.753906 420.246094 L 546.351562 420.246094 L 546.351562 389.753906 L 551.753906 389.753906 C 554.554688 389.753906 556.835938 392.03125 556.835938 394.835938 Z M 556.835938 415.164062 " fill-opacity="1" fill-rule="nonzero"/></g><g fill="#ffffff" fill-opacity="1"><g transform="translate(119.854415, 584.434423)"><g><path d="M 25.882812 0 L 22.828125 -23.726562 L 46.371094 -22.46875 L 46.371094 -34.328125 L 22.828125 -33.429688 L 22.828125 -37.925781 L 54.101562 -36.308594 L 54.101562 -62.90625 L 2.515625 -62.90625 L 2.515625 0 Z M 25.882812 0 "/></g></g></g><g fill="#ffffff" fill-opacity="1"><g transform="translate(175.74944, 584.434423)"><g><path d="M 1.796875 -35.589844 L 17.703125 -36.847656 L 17.433594 -26.0625 L 1.796875 -27.320312 L 1.796875 0 L 51.765625 0 L 51.765625 -27.320312 L 36.128906 -26.0625 L 35.859375 -36.847656 L 51.765625 -35.589844 L 51.765625 -62.90625 L 1.796875 -62.90625 Z M 1.796875 -35.589844 "/></g></g></g><g fill="#ffffff" fill-opacity="1"><g transform="translate(229.308023, 584.434423)"><g><path d="M 55.988281 -62.90625 L 1.796875 -62.90625 L 1.617188 -35.136719 L 21.117188 -36.039062 L 16.894531 0 L 40.980469 0 L 36.667969 -36.039062 L 56.257812 -35.136719 Z M 55.988281 -62.90625 "/></g></g></g><g fill="#ffffff" fill-opacity="1"><g transform="translate(287.180056, 584.434423)"><g/></g></g><g fill="#ffffff" fill-opacity="1"><g transform="translate(306.590552, 584.434423)"><g><path d="M 39.273438 0 C 53.742188 0 62.90625 -6.46875 62.90625 -17.253906 C 62.90625 -26.960938 55.269531 -31.453125 41.789062 -31.453125 L 41.789062 -32.890625 C 53.742188 -32.890625 60.570312 -38.195312 60.570312 -47.089844 C 60.570312 -57.695312 50.867188 -62.90625 36.9375 -62.90625 L 2.515625 -62.90625 L 2.515625 0 Z M 22.917969 -39.542969 L 34.507812 -39.542969 C 37.65625 -39.542969 39.8125 -38.644531 39.8125 -36.757812 C 39.8125 -34.867188 37.835938 -33.96875 34.777344 -33.96875 L 22.917969 -33.96875 Z M 22.917969 -29.65625 L 35.589844 -29.65625 C 39.003906 -29.65625 40.800781 -28.488281 40.800781 -26.601562 C 40.800781 -24.714844 39.003906 -23.546875 35.589844 -23.546875 L 22.917969 -23.546875 Z M 22.917969 -29.65625 "/></g></g></g><g fill="#ffffff" fill-opacity="1"><g transform="translate(370.663146, 584.434423)"><g><path d="M 28.9375 -12.941406 L 37.386719 -12.941406 L 39.09375 0 L 67.222656 0 L 45.832031 -62.90625 L 20.308594 -62.90625 L -1.078125 0 L 27.230469 0 Z M 33.878906 -39.273438 L 36.039062 -19.769531 L 30.105469 -19.769531 L 32.351562 -39.273438 Z M 33.878906 -39.273438 "/></g></g></g><g fill="#ffffff" fill-opacity="1"><g transform="translate(436.802618, 584.434423)"><g><path d="M 64.617188 0 L 64.617188 -62.90625 L 39.09375 -62.90625 L 43.765625 -35.40625 L 42.417969 -35.046875 L 22.199219 -62.90625 L 2.515625 -62.90625 L 2.515625 0 L 29.207031 0 L 23.457031 -34.6875 L 24.625 -35.046875 L 45.472656 0 Z M 64.617188 0 "/></g></g></g><g fill="#ffffff" fill-opacity="1"><g transform="translate(503.93057, 584.434423)"><g><path d="M 28.128906 1.347656 C 39.542969 1.347656 46.28125 -4.132812 49.246094 -23.996094 L 50.6875 -23.996094 L 46.371094 0 L 66.144531 0 L 65.246094 -26.871094 L 69.828125 -26.871094 L 69.828125 -36.21875 L 29.296875 -36.21875 L 29.296875 -27.679688 L 43.855469 -27.589844 C 43.765625 -25.253906 40.171875 -23.816406 34.777344 -23.816406 C 26.871094 -23.816406 21.929688 -26.332031 21.929688 -31.542969 C 21.929688 -36.488281 28.21875 -39.273438 38.105469 -39.273438 C 45.652344 -39.273438 51.765625 -38.375 57.246094 -37.117188 L 59.492188 -62.097656 C 53.203125 -63.355469 45.023438 -64.257812 37.117188 -64.257812 C 16.355469 -64.257812 1.617188 -53.742188 1.617188 -31.273438 C 1.617188 -9.617188 13.300781 1.347656 28.128906 1.347656 Z M 28.128906 1.347656 "/></g></g></g><g fill="#ffffff" fill-opacity="1"><g transform="translate(573.844292, 584.434423)"><g><path d="M 54.730469 -37.65625 L 54.730469 -62.90625 L 2.515625 -62.90625 L 2.515625 0 L 56.707031 0 L 56.707031 -26.332031 L 22.828125 -24.714844 L 22.828125 -28.578125 L 46.371094 -27.679688 L 46.371094 -35.769531 L 22.828125 -34.867188 L 22.828125 -38.554688 Z M 54.730469 -37.65625 "/></g></g></g><g fill="#ffffff" fill-opacity="1"><g transform="translate(632.255473, 584.434423)"><g><path d="M 55.988281 -62.90625 L 1.796875 -62.90625 L 1.617188 -35.136719 L 21.117188 -36.039062 L 16.894531 0 L 40.980469 0 L 36.667969 -36.039062 L 56.257812 -35.136719 Z M 55.988281 -62.90625 "/></g></g></g></svg>